<svg xmlns="http://www.w3.org/2000/svg" width="30" height="27" viewBox="0 0 30 27">
    <path fill="#FFF" fill-rule="evenodd" d="M4.71 0c3.102 0 4.83 2.381 4.832 4.572 0 .895-.338 1.934-.903 2.644l-.125.147-.025.025.603.34c.314.18.728.423 1.228.72l1.762 1.057 1.378.833 9.276-6.633c.233-.176.624-.422 1.14-.666 1.462-.69 3.002-.908 4.48-.333.475.185.928.45 1.353.797.374.306.386.868.046 1.191l-.078.066-11.862 8.738 11.862 8.742c.417.307.433.929.032 1.257-.425.347-.878.612-1.353.797-1.478.575-3.018.357-4.48-.333-.459-.217-.819-.436-1.044-.596l-.079-.058-8.114-5.802c-.285-.203-.4-.567-.294-.893l.035-.088.344-.749-.911.672-1.73 1.048-2.447 1.46c-.308.181-.563.33-.76.44l-.388.216.026.025c.554.613.92 1.54 1.007 2.4l.015.197.005.194C9.541 24.617 7.813 27 4.71 27 1.64 27 0 24.847 0 22.552c0-1.865.889-3.465 3.043-4.424l.287-.125c.198-.084.414-.172.679-.277l1.312-.529c.652-.27.944-.413 1.399-.666l.087-.049c1.28-.717 2.341-1.65 3.266-2.98l.186.274c-.974-1.484-2.082-2.49-3.451-3.257l-.33-.181c-.489-.262-.887-.432-2.07-.904l-.764-.306c-.224-.092-.414-.172-.6-.255C.888 7.913 0 6.313 0 4.448 0 2.153 1.64 0 4.71 0zm19.837 4.477c-.24.113-.457.234-.648.354l-.139.09-10.786 7.712-1.03.872-.164.276c-1.03 1.669-2.231 2.865-3.675 3.774l-.276.169-.253.146c-.765.429-1.074.569-2.568 1.166l-.765.306c-.211.087-.39.162-.56.238-1.542.686-2.104 1.699-2.104 2.972 0 1.496 1.039 2.86 3.13 2.86 2.105 0 3.253-1.583 3.253-2.985 0-.648-.325-1.494-.724-1.827-.58-.483-.697-1.166-.291-1.734.185-.26.426-.445.776-.645l.493-.275c.279-.158.662-.383 1.132-.662l1.038-.62 1.34-.806 1.215-.736L27.783 4.186l-.187-.066c-.959-.304-2.01-.134-3.05.357zM4.947 19.85c1.397 0 2.395 1.3 2.225 2.704-.16 1.315-1.297 2.234-2.63 2.234-1.397 0-2.463-1.158-2.294-2.554.159-1.32 1.376-2.384 2.7-2.384zm0 1.588c-.53 0-1.07.47-1.132.988-.052.433.262.774.727.774.566 0 1.004-.355 1.063-.838.06-.503-.262-.924-.658-.924zm11.966-6.635l-.825 1.791 7.697 5.502.114.074c.19.12.408.24.648.354 1.04.49 2.09.66 3.049.357l.188-.067-10.871-8.01zm-3.097-2.096c.218 0 .395.178.395.397 0 .22-.177.397-.395.397-.218 0-.395-.178-.395-.397 0-.22.177-.397.395-.397zM4.71 1.588c-2.092 0-3.131 1.364-3.131 2.86 0 1.274.562 2.286 2.103 2.972l.265.115c.139.06.288.12.461.19l1.423.572c.827.34 1.147.498 1.746.834 1.204.676 2.243 1.518 3.163 2.632l.227.284.037.049.016-.013.972-.695.06-.05-2.705-1.623c-.646-.383-1.128-.664-1.399-.813l-.068-.037c-.437-.235-.721-.436-.933-.732-.406-.568-.288-1.252.292-1.734.399-.332.724-1.179.724-1.826-.001-1.403-1.15-2.985-3.253-2.985zm-.168.625c1.333 0 2.471.919 2.63 2.234.17 1.403-.828 2.705-2.225 2.705-1.323 0-2.54-1.064-2.699-2.385-.168-1.396.898-2.554 2.294-2.554zm0 1.588c-.465 0-.779.342-.727.775.063.517.601.988 1.132.988.395 0 .719-.422.658-.925-.059-.484-.497-.838-1.063-.838z"/>
</svg>
