<svg xmlns="http://www.w3.org/2000/svg" width="37" height="36" viewBox="0 0 37 36">
    <g fill="none" fill-rule="evenodd">
        <path fill="#FFF" fill-rule="nonzero" d="M0 26.112c0-.33.268-.597.597-.597.297 0 .544.216.59.5l.008.097-.001.17h34.049c.296 0 .543.217.59.501l.007.097v5.376c0 1.977-1.608 3.584-3.584 3.584H3.584C1.608 35.84 0 34.233 0 32.256v-6.144zm34.645 1.365H1.195v4.779c0 1.318 1.071 2.39 2.389 2.39h28.672c1.318 0 2.39-1.072 2.39-2.39v-4.779zm.598-3.84c.296 0 .543.216.59.5l.007.097v1.195c0 .33-.268.597-.597.597-.297 0-.543-.216-.59-.5l-.008-.097v-1.195c0-.33.268-.597.598-.597zM.597 21.931c.297 0 .544.216.59.5l.008.097v1.195c0 .33-.268.597-.598.597-.296 0-.543-.216-.59-.5L0 23.723v-1.195c0-.33.268-.597.597-.597zM17.92 4.78c.33 0 .597.267.597.597v15.283l3.76-3.759c.206-.207.529-.23.761-.069l.083.07c.234.233.234.61 0 .844l-4.779 4.779c-.029.029-.06.055-.094.077-.044.029-.092.052-.144.069l-.058.015c-.04.009-.083.014-.126.014l.096-.008c-.032.005-.064.008-.096.008l-.091-.007-.004-.001-.031-.006-.057-.015c-.053-.017-.101-.04-.145-.07-.033-.021-.065-.047-.094-.076l-4.779-4.78c-.234-.233-.234-.61 0-.844.233-.233.612-.233.845 0l3.758 3.758V5.376c0-.297.217-.543.501-.59zm17.323 15.274c.296 0 .543.216.59.5l.007.097v1.195c0 .33-.268.597-.597.597-.297 0-.543-.216-.59-.5l-.008-.097V20.65c0-.33.268-.597.598-.597zM.597 18.347c.297 0 .544.216.59.5l.008.097v1.195c0 .33-.268.597-.598.597-.296 0-.543-.216-.59-.5L0 20.14v-1.195c0-.33.268-.597.597-.597zm34.646-1.878c.296 0 .543.216.59.5l.007.097v1.195c0 .33-.268.597-.597.597-.297 0-.543-.216-.59-.5l-.008-.097v-1.195c0-.33.268-.597.598-.597zM.597 14.763c.297 0 .544.216.59.5l.008.097v1.195c0 .33-.268.597-.598.597-.296 0-.543-.216-.59-.5L0 16.555V15.36c0-.33.268-.597.597-.597zm34.646-1.878c.296 0 .543.216.59.5l.007.097v1.195c0 .33-.268.597-.597.597-.297 0-.543-.216-.59-.5l-.008-.097v-1.195c0-.33.268-.597.598-.597zM.597 11.18c.297 0 .544.216.59.5l.008.097v1.195c0 .33-.268.597-.598.597-.296 0-.543-.216-.59-.5L0 12.971v-1.195c0-.33.268-.597.597-.597zm34.646-1.878c.296 0 .543.216.59.5l.007.097v1.195c0 .33-.268.597-.597.597-.297 0-.543-.216-.59-.5l-.008-.097V9.898c0-.33.268-.597.598-.597zM.597 7.595c.297 0 .544.216.59.5l.008.097v1.195c0 .33-.268.597-.598.597-.296 0-.543-.216-.59-.5L0 9.387V8.192c0-.33.268-.597.597-.597zm34.646-1.878c.296 0 .543.216.59.5l.007.097V7.51c0 .33-.268.597-.597.597-.297 0-.543-.216-.59-.5l-.008-.097V6.314c0-.33.268-.597.598-.597zM.597 4.011c.297 0 .544.216.59.5l.008.097v1.195c0 .33-.268.597-.598.597-.296 0-.543-.216-.59-.5L0 5.803V4.608c0-.33.268-.597.597-.597zm35.098-1.436c.072.245.118.497.136.752l.009.256v.342c0 .33-.268.597-.597.597-.297 0-.543-.216-.59-.5l-.008-.097v-.34c0-.23-.032-.457-.096-.675-.092-.316.09-.648.406-.741.316-.093.648.089.74.406zM2.08.935c.216.25.19.627-.06.843-.244.21-.44.464-.581.752-.104.21-.316.333-.536.333-.089 0-.179-.02-.264-.062-.296-.145-.417-.504-.272-.8.213-.431.505-.81.87-1.126.25-.216.627-.188.843.06zM32.465.011l.097.003c.482.04.942.175 1.368.402.292.154.402.516.248.807-.108.202-.315.317-.528.317-.095 0-.191-.022-.28-.07-.282-.15-.588-.239-.909-.266-.328-.028-.572-.316-.545-.646.023-.262.212-.477.455-.533l.094-.014zM5.035 0c.329 0 .597.267.597.597 0 .298-.217.544-.5.59l-.098.008H3.84c-.33 0-.598-.267-.598-.598 0-.297.217-.543.5-.59L3.84 0h1.194zm7.167 0c.33 0 .598.267.598.597 0 .298-.217.544-.5.59l-.098.008h-1.194c-.33 0-.598-.267-.598-.598 0-.297.217-.543.5-.59L11.009 0h1.194zM8.618 0c.33 0 .598.267.598.597 0 .298-.217.544-.5.59l-.098.008H7.424c-.33 0-.598-.267-.598-.598 0-.297.217-.543.5-.59L7.425 0h1.194zm7.168 0c.33 0 .598.267.598.597 0 .298-.217.544-.5.59l-.098.008h-1.194c-.33 0-.598-.267-.598-.598 0-.297.217-.543.5-.59L14.593 0h1.194zm10.752 0c.33 0 .598.267.598.597 0 .298-.217.544-.5.59l-.098.008h-1.194c-.33 0-.598-.267-.598-.598 0-.297.217-.543.5-.59L25.345 0h1.194zm-3.584 0c.33 0 .598.267.598.597 0 .298-.217.544-.5.59l-.098.008H21.76c-.33 0-.598-.267-.598-.598 0-.297.217-.543.5-.59L21.76 0h1.194zm7.168 0c.33 0 .598.267.598.597 0 .298-.217.544-.5.59l-.098.008h-1.194c-.33 0-.598-.267-.598-.598 0-.297.217-.543.5-.59L28.929 0h1.194zM19.37 0c.33 0 .598.267.598.597 0 .298-.217.544-.5.59l-.098.008h-1.194c-.33 0-.598-.267-.598-.598 0-.297.217-.543.5-.59L18.177 0h1.194z" opacity=".275" transform="translate(.488 .125)"/>
    </g>
</svg>
