<svg xmlns="http://www.w3.org/2000/svg" width="52" height="43" viewBox="0 0 52 43">
    <g fill="#FFF">
        <path d="M4.128 16.7V9.515h7.339V7.161H4.128V2.328h9.363V0H1.421v16.7h2.707zm21.734 0c3.973 0 6.124-1.77 6.124-4.63 0-1.872-1.265-3.467-3.416-3.82v-.026c1.948-.354 2.986-1.898 2.986-3.644 0-2.86-1.797-4.58-5.795-4.58h-6.579v16.7h6.68zm-.303-9.514h-3.72V2.277h3.72c2.125 0 3.188.81 3.188 2.455s-1.063 2.454-3.188 2.454zm.43 7.263h-4.15v-5.01h4.15c2.126 0 3.188.91 3.188 2.505 0 1.594-1.062 2.505-3.188 2.505zM38.841 16.7l1.594-4.378h7.035l1.569 4.378h2.86L45.596 0H42.36l-6.301 16.7h2.783zm7.82-6.58H41.22l1.974-5.414.708-2.354h.076l.76 2.404 1.922 5.365zM.911 31.744V28.46l.071.113c.11.157.244.3.404.426l.168.12c.353.232.765.348 1.236.348.47 0 .903-.118 1.298-.353s.712-.575.95-1.02c.24-.443.36-.973.36-1.588 0-.622-.118-1.154-.354-1.594-.235-.44-.548-.778-.939-1.013-.391-.236-.818-.353-1.281-.353-.326 0-.63.057-.911.17-.28.114-.52.272-.717.473-.1.1-.185.21-.26.326l-.083.148-.056-1.004H0v8.085h.911zm1.788-3.074c-.357 0-.67-.09-.94-.268-.27-.178-.478-.43-.626-.757-.148-.327-.222-.706-.222-1.139 0-.44.076-.822.228-1.144.152-.323.364-.573.637-.752.274-.178.592-.267.957-.267.554 0 .985.197 1.292.592.308.395.461.918.461 1.571 0 .653-.157 1.177-.472 1.572-.315.394-.754.592-1.315.592zm6.99.797c.281 0 .558-.046.831-.137.274-.09.517-.231.73-.421.084-.076.16-.16.225-.25l.037-.058.005.024c.032.157.091.292.178.406l.095.106c.209.197.488.296.837.296.243 0 .44-.038.592-.114l.046-.718c-.137.038-.277.057-.422.057-.288 0-.432-.136-.432-.41v-2.755c0-.638-.203-1.122-.61-1.452-.406-.33-.935-.495-1.588-.495-.6 0-1.104.127-1.514.381-.41.254-.695.602-.854 1.042l.74.455c.121-.364.319-.635.592-.814.273-.178.61-.267 1.013-.267.418 0 .74.115.968.347.228.232.342.56.342.985v.218l-2.073.408c-.43.089-.778.235-1.045.44l-.15.13c-.281.273-.422.622-.422 1.047 0 .494.179.875.536 1.145.356.27.804.404 1.343.404zm.125-.797c-.334 0-.595-.074-.785-.222-.19-.148-.285-.34-.285-.575 0-.243.087-.431.262-.564.175-.133.455-.241.843-.325l1.65-.337v.6c0 .248-.049.466-.149.652l-.084.133c-.155.213-.36.372-.615.478-.254.107-.533.16-.837.16zm7.686.797c.31 0 .586-.046.825-.137.24-.09.446-.216.62-.376l-.318-.763c-.13.13-.273.232-.433.308-.16.076-.349.114-.57.114-.25 0-.455-.069-.614-.205-.16-.137-.24-.346-.24-.626v-3.337h2.073v-.786H16.77v-1.616l-.91.25v1.366H14.72v.786h1.138v3.496c.007.291.058.538.154.74l.08.142c.148.224.348.388.598.49.25.103.52.154.809.154zm5.077 0c.311 0 .587-.046.826-.137.239-.09.446-.216.62-.376l-.319-.763c-.129.13-.273.232-.432.308-.16.076-.35.114-.57.114-.25 0-.455-.069-.614-.205-.16-.137-.24-.346-.24-.626v-3.337h2.073v-.786h-2.073v-1.616l-.91.25-.001 1.366h-1.138v.786h1.138v3.496c.007.291.058.538.153.74l.08.142c.149.224.348.388.599.49.25.103.52.154.808.154zm6.114 0c.539 0 1.01-.112 1.412-.336.402-.224.713-.533.934-.928l-.718-.421c-.167.288-.383.508-.649.66-.266.152-.6.228-1.002.228-.38 0-.71-.086-.99-.256-.281-.171-.498-.42-.65-.746-.09-.196-.154-.414-.19-.653l-.03-.247h4.297c.008-.042.014-.087.02-.135l.014-.155c.008-.11.011-.226.011-.348 0-.485-.1-.926-.301-1.32-.201-.395-.492-.705-.871-.928-.38-.224-.828-.336-1.344-.336-.531 0-1.002.12-1.412.358-.41.24-.73.583-.962 1.03-.232.449-.348.973-.348 1.572 0 .608.118 1.133.353 1.577.236.444.564.786.985 1.025.422.24.902.359 1.44.359zm1.546-3.507h-3.394l.038-.194c.017-.075.038-.148.062-.218l.08-.203c.148-.327.357-.575.626-.746.27-.17.59-.256.962-.256.54 0 .957.174 1.253.524.222.261.346.598.371 1.01l.002.083zm4.59 3.393v-3.075c0-.425.08-.776.24-1.053.159-.277.358-.484.597-.62.24-.137.477-.205.712-.205.182 0 .323.007.421.022.099.016.19.038.274.069l.16-.832c-.084-.045-.185-.075-.303-.09-.117-.016-.226-.023-.324-.023-.44 0-.814.087-1.122.262-.307.174-.54.436-.7.785l-.125-.934h-.74v5.694h.91zm5.681 0v-3.029c0-.486.09-.873.268-1.161.178-.289.404-.498.678-.627.273-.129.546-.193.82-.193.394 0 .726.123.996.37s.404.685.404 1.315v3.325h.911v-3.644c0-.493-.1-.9-.302-1.218-.2-.32-.469-.556-.803-.712-.334-.156-.706-.233-1.115-.233-.289 0-.568.041-.837.125-.27.083-.507.218-.712.404-.123.112-.231.244-.324.398l-.042.077-.055-.89h-.797v5.693h.91zM.911 42.005v-3.04c0-.47.087-.85.262-1.139.174-.288.393-.499.655-.632s.518-.2.768-.2c.38 0 .699.115.957.342.258.228.387.6.387 1.116v3.553h.91v-3.12c0-.41.079-.755.234-1.036.156-.281.363-.494.62-.638.259-.144.536-.216.832-.216.38 0 .698.114.957.341.258.228.387.6.387 1.116v3.553h.91v-3.644c0-.5-.106-.91-.318-1.23-.213-.318-.484-.554-.814-.705-.33-.152-.678-.228-1.042-.228-.236 0-.484.04-.746.12-.262.079-.503.2-.723.364-.22.163-.391.374-.513.632-.19-.38-.463-.66-.82-.843-.356-.182-.736-.273-1.138-.273-.35 0-.689.08-1.02.239-.33.16-.597.414-.802.763l-.057-.888H0v5.693h.911zm12.49.114c.281 0 .558-.046.832-.137.273-.09.516-.231.728-.421.085-.076.16-.16.226-.25l.037-.057.005.024c.032.156.092.292.178.405l.095.106c.209.197.488.296.837.296.243 0 .44-.038.592-.114l.046-.717c-.137.038-.277.056-.421.056-.289 0-.433-.136-.433-.41v-2.755c0-.638-.203-1.122-.61-1.452-.405-.33-.935-.495-1.588-.495-.6 0-1.104.127-1.514.381-.41.255-.695.602-.854 1.042l.74.456c.121-.365.319-.636.592-.815.273-.178.611-.267 1.013-.267.418 0 .74.116.968.347.228.232.342.56.342.985v.218l-2.073.408c-.43.089-.778.236-1.045.44l-.15.13c-.281.273-.421.622-.421 1.047 0 .494.178.875.535 1.145.357.27.804.404 1.343.404zm.126-.797c-.334 0-.596-.074-.786-.222-.19-.148-.285-.34-.285-.575 0-.243.088-.431.262-.564.175-.133.456-.24.843-.324l1.65-.338v.6c0 .249-.049.466-.149.652l-.084.133c-.155.213-.36.372-.614.478-.255.107-.534.16-.837.16zm6.751.683V40.4l1.203-1.204 1.917 2.81h1.105l-2.36-3.47 2.223-2.224h-1.15l-2.938 2.948v-5.567h-.91v8.312h.91zm8.756.114c.539 0 1.01-.112 1.412-.336.402-.224.713-.533.933-.928l-.717-.421c-.167.288-.383.508-.65.66-.265.152-.599.228-1.001.228-.38 0-.71-.086-.99-.256-.282-.171-.498-.42-.65-.746-.091-.196-.155-.414-.191-.653l-.029-.245 4.297-.002c.007-.041.014-.087.02-.135l.014-.155c.007-.11.011-.226.011-.347 0-.486-.1-.927-.302-1.321-.2-.395-.491-.704-.87-.928-.38-.224-.828-.336-1.344-.336-.532 0-1.002.12-1.412.358-.41.24-.731.583-.963 1.031-.231.448-.347.972-.347 1.571 0 .608.118 1.133.353 1.577.235.445.564.786.985 1.025.421.24.902.359 1.44.359zm1.545-3.507h-3.393l.037-.194c.018-.075.039-.148.062-.218l.08-.203c.148-.327.357-.575.627-.746.27-.17.59-.256.962-.256.539 0 .956.174 1.252.524.222.262.346.598.372 1.01v.083zm4.591 3.393v-3.074c0-.425.08-.777.24-1.054.159-.277.358-.484.597-.62.24-.137.476-.205.712-.205.182 0 .322.007.421.023.099.015.19.038.273.068l.16-.831c-.084-.046-.184-.076-.302-.091-.118-.016-.226-.023-.325-.023-.44 0-.814.087-1.121.262-.308.174-.541.436-.7.785l-.126-.933h-.74v5.693h.911z"/>
    </g>
</svg>
