<svg xmlns="http://www.w3.org/2000/svg" width="37" height="37" viewBox="0 0 37 37">
    <path fill="#FFF" d="M18.2 0c.837 0 1.517.68 1.517 1.517v3.122c6.316.703 11.341 5.728 12.044 12.044h3.122c.838 0 1.517.68 1.517 1.517 0 .837-.68 1.517-1.517 1.517h-3.122c-.703 6.316-5.728 11.341-12.044 12.044v3.122c0 .838-.68 1.517-1.517 1.517-.837 0-1.517-.68-1.517-1.517v-3.122c-6.316-.703-11.341-5.728-12.044-12.044H1.517C.679 19.717 0 19.037 0 18.2c0-.837.68-1.517 1.517-1.517h3.122c.703-6.316 5.728-11.341 12.044-12.044V1.517C16.683.679 17.363 0 18.2 0zm0 6.88c-6.242 0-11.32 5.078-11.32 11.32s5.078 11.32 11.32 11.32 11.32-5.078 11.32-11.32S24.442 6.88 18.2 6.88zm.212 6.395c2.832 0 5.137 2.304 5.137 5.137 0 2.832-2.305 5.137-5.137 5.137-2.832 0-5.137-2.305-5.137-5.137 0-2.833 2.305-5.137 5.137-5.137zm-.052 1.765c-1.875 0-3.4 1.525-3.4 3.4s1.525 3.4 3.4 3.4 3.4-1.525 3.4-3.4-1.525-3.4-3.4-3.4z"/>
</svg>
