<svg xmlns="http://www.w3.org/2000/svg" width="13" height="14" viewBox="0 0 13 14">
    <g fill="#FFF" opacity=".605" transform="translate(0 .8)">
        <circle cx="6.095" cy="9.143" r="1"/>
        <path d="M6.4 0C2.863 0 0 2.862 0 6.4c0 3.537 2.862 6.4 6.4 6.4 3.537 0 6.4-2.862 6.4-6.4C12.8 2.863 9.938 0 6.4 0zm0 11.8C3.416 11.8 1 9.385 1 6.4 1 3.416 3.415 1 6.4 1c2.984 0 5.4 2.415 5.4 5.4 0 2.984-2.415 5.4-5.4 5.4z"/>
        <path d="M6.4 3.048c-1.176 0-2.133.833-2.133 1.857 0 .257.238.465.533.465.295 0 .533-.208.533-.465 0-.512.479-.929 1.067-.929s1.067.417 1.067.93c0 .511-.479.928-1.067.928-.295 0-.533.208-.533.464V7.46c0 .257.238.465.533.465.295 0 .533-.208.533-.465v-.755c.92-.207 1.6-.935 1.6-1.799 0-1.024-.957-1.857-2.133-1.857z"/>
    </g>
</svg>
