<svg xmlns="http://www.w3.org/2000/svg" width="12" height="12" viewBox="0 0 12 12">
    <path fill="#FFF" d="M5.7 8.897c.745 0 1.352.606 1.352 1.351 0 .746-.607 1.352-1.352 1.352-.745 0-1.352-.606-1.352-1.352 0-.745.607-1.351 1.352-1.351zm-4.248 0c.745 0 1.351.606 1.351 1.351 0 .746-.606 1.352-1.351 1.352C.706 11.6.1 10.994.1 10.248c0-.745.606-1.351 1.352-1.351zm8.496 0c.746 0 1.352.606 1.352 1.351 0 .746-.606 1.352-1.352 1.352-.745 0-1.351-.606-1.351-1.352 0-.745.606-1.351 1.351-1.351zM5.7 9.538c-.392 0-.71.319-.71.71 0 .392.318.71.71.71.392 0 .71-.318.71-.71 0-.391-.318-.71-.71-.71zm-4.248 0c-.392 0-.71.319-.71.71 0 .392.318.71.71.71.391 0 .71-.318.71-.71 0-.391-.319-.71-.71-.71zm8.496 0c-.391 0-.71.319-.71.71 0 .392.319.71.71.71.392 0 .71-.318.71-.71 0-.391-.318-.71-.71-.71zM5.7 4.648c.745 0 1.352.607 1.352 1.352 0 .745-.607 1.352-1.352 1.352-.745 0-1.352-.607-1.352-1.352 0-.745.607-1.352 1.352-1.352zm-4.248 0c.745 0 1.351.607 1.351 1.352 0 .745-.606 1.352-1.351 1.352C.706 7.352.1 6.745.1 6c0-.745.606-1.352 1.352-1.352zm8.496 0c.746 0 1.352.607 1.352 1.352 0 .745-.606 1.352-1.352 1.352-.745 0-1.351-.607-1.351-1.352 0-.745.606-1.352 1.351-1.352zM5.7 5.29c-.392 0-.71.318-.71.71 0 .392.318.71.71.71.392 0 .71-.318.71-.71 0-.392-.318-.71-.71-.71zm-4.248 0c-.392 0-.71.318-.71.71 0 .392.318.71.71.71.391 0 .71-.318.71-.71 0-.392-.319-.71-.71-.71zm8.496 0c-.391 0-.71.318-.71.71 0 .392.319.71.71.71.392 0 .71-.318.71-.71 0-.392-.318-.71-.71-.71zM5.7.4c.745 0 1.352.606 1.352 1.352 0 .745-.607 1.351-1.352 1.351-.745 0-1.352-.606-1.352-1.351C4.348 1.006 4.955.4 5.7.4zM1.452.4c.745 0 1.351.606 1.351 1.352 0 .745-.606 1.351-1.351 1.351C.706 3.103.1 2.497.1 1.752.1 1.006.706.4 1.452.4zm8.496 0c.746 0 1.352.606 1.352 1.352 0 .745-.606 1.351-1.352 1.351-.745 0-1.351-.606-1.351-1.351C8.597 1.006 9.203.4 9.948.4zM5.7 1.042c-.392 0-.71.318-.71.71 0 .391.318.71.71.71.392 0 .71-.319.71-.71 0-.392-.318-.71-.71-.71zm-4.248 0c-.392 0-.71.318-.71.71 0 .391.318.71.71.71.391 0 .71-.319.71-.71 0-.392-.319-.71-.71-.71zm8.496 0c-.391 0-.71.318-.71.71 0 .391.319.71.71.71.392 0 .71-.319.71-.71 0-.392-.318-.71-.71-.71z"/>
</svg>
