<svg xmlns="http://www.w3.org/2000/svg" width="13" height="13" viewBox="0 0 13 13">
    <path fill="#FFF" d="M6.2.356c3.338 0 6.044 2.706 6.044 6.044 0 3.338-2.706 6.044-6.044 6.044C2.862 12.444.156 9.738.156 6.4.156 3.062 2.862.356 6.2.356zm0 .71C3.254 1.067.867 3.455.867 6.4c0 2.946 2.387 5.333 5.333 5.333s5.333-2.387 5.333-5.333S9.146 1.067 6.2 1.067zm0 2.667c.27 0 .493.201.528.461l.005.073v1.632h1.633c.295 0 .533.24.533.534 0 .27-.2.493-.46.528l-.073.005H6.733v1.633c0 .294-.238.533-.533.533-.27 0-.493-.2-.528-.461l-.005-.072V6.966H4.034c-.295 0-.533-.239-.533-.533 0-.27.2-.494.46-.529l.073-.005h1.633V4.267c0-.295.238-.534.533-.534z"/>
</svg>
