<svg xmlns="http://www.w3.org/2000/svg" width="19" height="23" viewBox="0 0 19 23">
    <path fill="#FFF" d="M10.981 0c.672 0 1.219.544 1.219 1.213V2.55h4.13c.592 0 1.115.375 1.302.933l.492 1.466c.112.333.055.703-.152.988-.207.285-.54.456-.895.456h-.284L15.663 20.3c-.085 1.032-.965 1.84-2.005 1.84H4.752c-1.04 0-1.921-.808-2.005-1.84L1.617 6.393h-.514c-.354 0-.688-.17-.895-.456C0 5.652-.056 5.282.056 4.949l.492-1.466c.187-.558.71-.933 1.302-.933h4.13V1.213C5.98.544 6.527 0 7.2 0zm4.504 6.393H2.925l1.122 13.802c.03.363.34.648.705.648h8.906c.365 0 .675-.285.704-.648l1.123-13.802zm-2.444.988c.372.018.657.318.638.67l-.633 11.504c-.018.34-.316.605-.672.605h-.035c-.372-.02-.657-.32-.638-.671l.632-11.504c.02-.352.336-.623.708-.604zm-7.914 0c.367-.02.68.25.7.602l.652 11.504c.02.352-.26.653-.626.672l-.037.001c-.35 0-.643-.263-.662-.603L4.5 8.053c-.02-.352.26-.653.626-.672zM9 7.38c.398 0 .72.286.72.638v11.504c0 .352-.322.638-.72.638-.398 0-.72-.286-.72-.638V8.018c0-.352.322-.638.72-.638zm7.33-3.532H1.85c-.03 0-.056.018-.065.046l-.403 1.201h15.416l-.403-1.201c-.01-.028-.035-.046-.065-.046zm-5.434-2.55H7.284V2.55h3.612V1.297z" opacity=".25"/>
</svg>
