<svg xmlns="http://www.w3.org/2000/svg" width="36" height="36" viewBox="0 0 36 36">
    <path fill="#FFF" d="M27.776.176c.234-.235.613-.235.848 0l7.2 7.2c.113.113.176.266.176.425 0 .159-.063.312-.176.424l-27.6 27.6c-.112.112-.265.175-.423.175-.16 0-.312-.063-.425-.176l-7.2-7.2c-.235-.235-.235-.614 0-.849zm.424 1.273l-4.552 4.55 1.378 1.377-.849.849L22.8 6.847l-.952.952 1.977 1.977-.848.849L21 8.648l-.951.951 1.377 1.377-.849.848-1.377-1.377-.951.952 1.976 1.976-.848.849-1.977-1.977-.951.952 1.377 1.376-.849.849-1.377-1.377-.951.951 1.976 1.977-.848.849-1.977-1.977-.951.951 1.376 1.376-.848.848L12 17.647l-.953.952 1.977 1.977-.849.848-1.976-1.976-.951.951 1.376 1.377-.848.848L8.4 21.248l-.952.951 1.977 1.977-.849.849L6.6 23.048l-.951.951 1.377 1.378-.848.848L4.8 24.848l-.952.952 1.977 1.976-.849.849-1.977-1.977-1.55 1.552L7.8 34.552 34.55 7.8 28.2 1.449zm.602 3.95c.993 0 1.8.808 1.8 1.8 0 .993-.807 1.8-1.8 1.8-.992 0-1.8-.807-1.8-1.8 0-.992.808-1.8 1.8-1.8zm0 1.2c-.331 0-.6.27-.6.6 0 .331.269.6.6.6.331 0 .6-.268.6-.6 0-.33-.269-.6-.6-.6z"/>
</svg>
