<svg xmlns="http://www.w3.org/2000/svg" width="13" height="14" viewBox="0 0 13 14">
    <g fill="#FFF" opacity=".605">
        <path d="M2.265 10.057c-.18 0-.353.045-.507.13C.948 9.14.503 7.838.503 6.503.503 3.197 3.166.508 6.44.508c.398 0 .796.04 1.182.119.136.028.27-.061.297-.199.027-.137-.06-.271-.197-.3C7.302.044 6.872 0 6.44 0 4.72 0 3.103.676 1.886 1.904.67 3.133 0 4.765 0 6.502c0 1.461.491 2.887 1.386 4.03-.115.174-.177.378-.177.592 0 .285.11.553.31.754.199.201.464.312.746.312.283 0 .548-.11.747-.312.2-.201.31-.47.31-.754 0-.285-.11-.553-.31-.755-.2-.201-.464-.312-.747-.312zm.392 1.462c-.105.105-.244.163-.392.163-.147 0-.286-.058-.39-.163-.105-.106-.163-.246-.163-.395 0-.15.058-.29.162-.395.105-.106.244-.164.391-.164.148 0 .287.058.392.164.104.105.162.245.162.395 0 .149-.058.29-.162.395zM11.412 2.268c.274-.414.23-.98-.132-1.346-.2-.201-.466-.312-.749-.312-.282 0-.548.11-.748.312-.2.201-.31.47-.31.754 0 .285.11.553.31.755.2.201.466.312.748.312.18 0 .354-.045.508-.13.812 1.048 1.257 2.35 1.257 3.685 0 3.305-2.667 5.994-5.946 5.994-.394 0-.789-.04-1.172-.117-.137-.027-.27.062-.297.2-.027.137.061.271.198.299.416.083.844.126 1.271.126 1.723 0 3.343-.676 4.561-1.904C12.129 9.667 12.8 8.035 12.8 6.298c0-1.461-.492-2.887-1.388-4.03zm-1.273-.197c-.104-.105-.162-.245-.162-.395 0-.149.058-.29.162-.395.105-.105.244-.163.392-.163.148 0 .288.058.392.163.216.218.216.573 0 .79-.104.106-.244.164-.392.164-.148 0-.287-.058-.392-.164z" transform="translate(0 .8)"/>
        <path d="M5.364 10.72c0 .139.112.251.25.251h1.571c.139 0 .251-.112.251-.25v-.488c.33-.089.646-.22.943-.39l.344.343c.047.047.11.074.177.074.067 0 .13-.027.178-.074l1.11-1.11c.098-.099.098-.258 0-.356l-.343-.343c.17-.297.301-.613.39-.943h.485c.139 0 .251-.112.251-.251v-1.57c0-.14-.112-.252-.25-.252h-.486c-.089-.33-.22-.646-.39-.942l.341-.342c.047-.047.074-.111.074-.178 0-.066-.027-.13-.074-.177l-1.11-1.11c-.099-.098-.258-.098-.356 0l-.341.34c-.297-.17-.612-.3-.943-.39V2.08c0-.139-.112-.251-.25-.251H5.614c-.139 0-.251.112-.251.25v.483c-.33.09-.646.22-.943.39l-.341-.34c-.098-.098-.257-.098-.355 0l-1.111 1.11c-.047.047-.074.11-.074.177 0 .067.027.131.074.178l.341.342c-.17.296-.301.612-.39.942H2.08c-.14 0-.252.113-.252.251v1.57c0 .067.026.131.073.179.047.047.111.073.178.073h.485c.089.33.22.646.39.943l-.343.343c-.098.098-.098.257 0 .355l1.11 1.111c.047.047.111.074.178.074.066 0 .13-.027.177-.074l.344-.343c.297.17.612.301.943.39v.487zm-.845-1.406c-.099-.064-.23-.05-.313.034l-.306.306-.755-.756.305-.306c.084-.083.098-.214.034-.314-.228-.352-.388-.738-.476-1.148-.025-.115-.127-.198-.246-.198h-.431V5.864h.431c.119 0 .221-.083.246-.199.088-.41.248-.796.476-1.148.064-.1.05-.23-.034-.314L3.147 3.9l.755-.755.304.303c.083.084.214.097.313.033.353-.227.739-.388 1.149-.476.115-.024.198-.127.198-.245v-.43h1.068v.43c0 .118.083.22.198.245.41.088.796.248 1.148.476.1.064.23.05.314-.033l.304-.303.755.755-.303.303c-.084.084-.098.215-.034.314.228.352.388.739.476 1.148.025.116.127.199.246.199h.431v1.068h-.431c-.119 0-.221.083-.246.198-.088.41-.248.796-.476 1.148-.064.1-.05.23.034.314l.305.306-.755.755-.306-.305c-.083-.084-.214-.098-.314-.034-.352.228-.738.388-1.148.476-.115.025-.198.127-.198.246v.433H5.866v-.433c0-.119-.083-.221-.198-.246-.41-.088-.796-.248-1.149-.476z" transform="translate(0 .8)"/>
        <path d="M8.533 6.4c0-1.176-.957-2.133-2.133-2.133-1.176 0-2.133.957-2.133 2.133 0 1.176.957 2.133 2.133 2.133 1.176 0 2.133-.957 2.133-2.133zm-3.75 0c0-.892.725-1.617 1.617-1.617s1.617.725 1.617 1.617S7.292 8.017 6.4 8.017 4.783 7.292 4.783 6.4zM8.838 1.219c.08 0 .159-.033.216-.09.056-.056.089-.135.089-.215 0-.08-.033-.158-.09-.215-.056-.057-.135-.09-.215-.09-.08 0-.159.033-.215.09-.057.057-.09.135-.09.215 0 .08.033.159.09.216.056.056.135.089.215.089zM3.962 11.581c-.08 0-.159.033-.216.09-.056.056-.089.135-.089.215 0 .08.033.159.09.215.056.057.135.09.215.09.08 0 .159-.033.215-.09.057-.056.09-.135.09-.215 0-.08-.033-.16-.09-.216-.056-.056-.135-.089-.215-.089z" transform="translate(0 .8)"/>
    </g>
</svg>
