<svg xmlns="http://www.w3.org/2000/svg" width="14" height="13" viewBox="0 0 14 13">
    <path fill="#FFF" d="M10.804 0c.68 0 1.25.483 1.4 1.13.773.021 1.396.67 1.396 1.465v8.738c0 .81-.645 1.467-1.438 1.467H3.596c-.68 0-1.25-.483-1.4-1.13C1.424 11.65.8 11 .8 10.206V2.204C.8.989 1.77 0 2.96 0zM5.94 4.783c-.17-.003-.327.086-.414.237L2.658 9.98v1.353c0 .12.022.234.06.339.135.36.477.618.878.618h8.566c.517 0 .938-.43.938-.957V9.521l-.858-.802-.5-.468-.059-.054c-.172-.162-.439-.169-.619-.016l-1.124.951c-.2.17-.452.254-.708.242l.583 1.091c.066.124.021.279-.1.346-.038.021-.08.031-.12.031-.088 0-.174-.048-.22-.133L7.582 7.347 6.346 5.034c-.082-.154-.234-.248-.406-.25zM10.8 11.2l.078.008c.026.005.05.013.075.023.024.01.047.022.069.036.022.015.042.032.06.05.02.018.036.039.05.06.015.022.027.046.037.07.01.024.018.05.023.075.006.025.008.052.008.078 0 .026-.002.052-.008.078-.005.026-.013.05-.023.075-.01.024-.022.047-.037.069-.014.022-.03.042-.05.06-.008.01-.018.019-.028.027l-.032.023c-.022.015-.045.027-.07.037-.023.01-.048.018-.074.023-.026.005-.052.008-.078.008-.026 0-.052-.003-.078-.008-.026-.005-.05-.013-.075-.023-.024-.01-.047-.022-.069-.037l-.032-.023-.029-.026c-.018-.019-.035-.039-.05-.061-.014-.022-.026-.045-.036-.07-.01-.023-.018-.048-.023-.074-.005-.026-.008-.052-.008-.078 0-.026.003-.053.008-.078.005-.026.013-.05.023-.075.01-.024.022-.048.037-.07.014-.021.03-.042.05-.06.018-.018.038-.035.06-.05.022-.014.045-.026.07-.036.023-.01.048-.018.074-.023.052-.01.104-.01.156 0zM10.804.51H2.96c-.915 0-1.66.76-1.66 1.694v8.001c0 .5.378.912.858.953V2.595c0-.81.645-1.467 1.438-1.467H5.14c.139 0 .25.114.25.255 0 .14-.111.255-.25.255H3.596c-.517 0-.938.43-.938.957v6.381L5.095 4.76c.18-.31.5-.492.854-.487.354.006.666.2.836.517l.794 1.488.44.825.79 1.478c.076.144.211.244.369.275.158.03.319-.012.443-.116l1.124-.952c.284-.24.671-.288.997-.15l.5.389.858.802V2.595c0-.5-.378-.912-.858-.953l-.5-.004H7.14c-.068 0-.13-.028-.175-.074l-.012.005c-.024.01-.05.018-.075.023-.026.005-.052.008-.078.008-.026 0-.052-.003-.078-.008-.026-.005-.05-.013-.075-.023-.024-.01-.047-.022-.069-.037-.022-.014-.042-.03-.06-.05-.02-.018-.036-.038-.05-.06-.015-.022-.027-.045-.037-.07-.01-.023-.018-.048-.023-.074-.005-.026-.008-.052-.008-.078 0-.026.003-.052.008-.078.005-.026.013-.051.023-.075s.022-.047.036-.07c.015-.02.032-.042.05-.06.019-.018.039-.035.061-.05.022-.014.045-.026.069-.036.024-.01.05-.018.075-.023.052-.01.104-.01.156 0 .026.005.05.013.075.023.024.01.047.022.069.036.022.015.042.032.06.05.02.018.036.04.05.06.015.023.027.046.037.07.01.024.018.05.023.075l.001.007 4.488-.001c-.134-.36-.476-.618-.877-.618zM10.4 2.4c.882 0 1.6.718 1.6 1.6 0 .882-.718 1.6-1.6 1.6-.882 0-1.6-.718-1.6-1.6 0-.882.718-1.6 1.6-1.6zm0 .62c-.54 0-.98.44-.98.98s.44.98.98.98.98-.44.98-.98-.44-.98-.98-.98z" opacity=".605"/>
</svg>
